<svg xmlns="http://www.w3.org/2000/svg" xmlns:xlink="http://www.w3.org/1999/xlink" viewBox="0 0 88.21 93.13"><defs><style>.cls-1{fill:none;}.cls-2{clip-path:url(#clip-path);}.cls-3{fill:url(#linear-gradient);}.cls-4{clip-path:url(#clip-path-2);}.cls-5{fill:url(#linear-gradient-2);}.cls-6{clip-path:url(#clip-path-3);}.cls-7{fill:url(#linear-gradient-3);}.cls-8{clip-path:url(#clip-path-4);}.cls-9{fill:url(#linear-gradient-4);}.cls-10{clip-path:url(#clip-path-5);}.cls-11{fill:url(#linear-gradient-5);}.cls-12{clip-path:url(#clip-path-6);}.cls-13{fill:url(#linear-gradient-6);}.cls-14{clip-path:url(#clip-path-7);}.cls-15{fill:url(#linear-gradient-7);}.cls-16{clip-path:url(#clip-path-8);}.cls-17{fill:url(#linear-gradient-8);}.cls-18{clip-path:url(#clip-path-9);}.cls-19{fill:url(#linear-gradient-9);}.cls-20{clip-path:url(#clip-path-10);}.cls-21{fill:url(#linear-gradient-10);}</style><clipPath id="clip-path"><path class="cls-1" d="M40.82,39.44c1.16,1.79,3.75,2,5.93,1.16L44.33,40c-1.38-.37-2.59-.7-3.63-1a.85.85,0,0,0,.12.5"/></clipPath><linearGradient id="linear-gradient" x1="-254.53" y1="162.06" x2="-253.53" y2="162.06" gradientTransform="matrix(0, 3.58, 3.58, 0, -537, 950.56)" gradientUnits="userSpaceOnUse"><stop offset="0" stop-color="#86ecda"/><stop offset="1" stop-color="#65b0e4"/></linearGradient><clipPath id="clip-path-2"><path class="cls-1" d="M37.18,41c2.67,4.56,10,4.21,13.78.88-1.42-.48-2.83-.89-4.21-1.27-2.18.82-4.77.63-5.93-1.16a.85.85,0,0,1-.12-.5c-1.12-.34-2.05-.65-2.82-.95a2,2,0,0,0-.7,3"/></clipPath><linearGradient id="linear-gradient-2" x1="-254.53" y1="162.03" x2="-253.53" y2="162.03" gradientTransform="matrix(0, 8.12, 8.12, 0, -1272.03, 2104.34)" xlink:href="#linear-gradient"/><clipPath id="clip-path-3"><path class="cls-1" d="M33,41.33a10.23,10.23,0,0,0,7.14,5.94c4.89,1.34,11.3,0,14.46-4a27.43,27.43,0,0,0-2.69-1.09l-.9-.31C47.19,45.2,39.85,45.55,37.18,41a2,2,0,0,1,.7-3c-2.11-.82-3-1.59-3.12-2.64a2.45,2.45,0,0,1,.7-1.87c-2.37,2-3.77,4.8-2.51,7.85"/></clipPath><linearGradient id="linear-gradient-3" x1="-254.53" y1="162.1" x2="-253.53" y2="162.1" gradientTransform="matrix(0, 15.21, 15.21, 0, -2421.97, 3904.94)" xlink:href="#linear-gradient"/><clipPath id="clip-path-4"><path class="cls-1" d="M45.86,51c-1.9.07-3.94.09-6,0l1.44.38c2.21.59,4.5,1.2,6.67,2,1.74.61,4,1.68,4.67,3.28a4.45,4.45,0,0,1-1.57,5.12c-1.74,1.24-5,1.29-7.92,1.25a8.44,8.44,0,0,1-5.87-2.41c-1.76-1.7-7.3-5.31-9.58-4.44a6.09,6.09,0,0,0-2.4,9.78,28.85,28.85,0,0,0,15,8.35A22.07,22.07,0,0,0,56.53,71a13.92,13.92,0,0,0,4.39-18.74c-1.21-2.09-3.13-2.72-5.31-2.72-3.12,0-6.79,1.29-9.75,1.48"/></clipPath><linearGradient id="linear-gradient-4" x1="-254.53" y1="162.04" x2="-253.53" y2="162.04" gradientTransform="matrix(0, 22.17, 22.17, 0, -3548.21, 5696.1)" xlink:href="#linear-gradient"/><clipPath id="clip-path-5"><path class="cls-1" d="M39.45,19C30.81,20.54,22,26.73,23.06,36.61c1,9.52,9.46,12.33,16.8,14.33,2.06.13,4.1.11,6,0,5-.32,12.12-3.83,15.06,1.24,3.63,6.51-.25,13.24-4.26,18.58,9.31-6.33,9.55-12.57,6.77-18.94a17.22,17.22,0,0,0-8.88-8.59c-3.16,4-9.57,5.34-14.46,4A10.23,10.23,0,0,1,33,41.33c-1.26-3,.14-5.89,2.51-7.85,1.37-1.58,4.43-2.63,6.09-2.93,2.07-.38,9.73.71,11.7,4.63a6,6,0,0,0,7.06,3.18,5.89,5.89,0,0,0,3.6-8.18c-3.7-7.69-13.08-11.53-20.8-11.53a20.43,20.43,0,0,0-3.66.32"/></clipPath><linearGradient id="linear-gradient-5" x1="-254.53" y1="162" x2="-253.53" y2="162" gradientTransform="matrix(0, 45.09, 45.09, 0, -7260.13, 11505.39)" xlink:href="#linear-gradient"/><clipPath id="clip-path-6"><path class="cls-1" d="M39.45,19C30.81,20.54,22,26.73,23.06,36.61c.76,7,5.58,10.41,11,12.5-9.21-4.38-3.37-20,10-18.73,2.54.07,7.77,2,9.17,4.8a6,6,0,0,0,7.06,3.18,5.89,5.89,0,0,0,3.6-8.18c-3.7-7.69-13.08-11.53-20.8-11.53a20.43,20.43,0,0,0-3.66.32"/></clipPath><linearGradient id="linear-gradient-6" x1="-254.53" y1="162.12" x2="-253.53" y2="162.12" gradientTransform="matrix(-42.02, 0, 0, 42.02, -10628.52, -6778.57)" gradientUnits="userSpaceOnUse"><stop offset="0" stop-color="#86ecda"/><stop offset="1" stop-color="#3c6aae"/></linearGradient><clipPath id="clip-path-7"><path class="cls-1" d="M52.58,59.74a2.44,2.44,0,0,1,.33,2.8c-2.26,3.59-8.3,4.09-11.27,1a2.14,2.14,0,0,1-.39-.87,8.39,8.39,0,0,1-4-2.18l-.15-.13c1.1,3.66,3.57,6.84,7.46,7.65,3.6.86,8-.07,9.7-3.66a6.64,6.64,0,0,0-.12-5.23,5.56,5.56,0,0,0-1.29-1.73,4.34,4.34,0,0,1-.3,2.32"/></clipPath><linearGradient id="linear-gradient-7" x1="-254.53" y1="162.12" x2="-253.53" y2="162.12" gradientTransform="matrix(0, -17.1, -17.1, 0, 2817.69, -4276.64)" gradientUnits="userSpaceOnUse"><stop offset="0" stop-color="#6c00fa"/><stop offset="1" stop-color="#79d4dd"/></linearGradient><clipPath id="clip-path-8"><path class="cls-1" d="M51.07,61.68c-1.42,1-3.85,1.23-6.28,1.25a3.83,3.83,0,0,0,.28.29,7.34,7.34,0,0,0,6.44-.9A1,1,0,0,0,51.84,61a4,4,0,0,1-.77.72"/></clipPath><linearGradient id="linear-gradient-8" x1="-254.53" y1="162.12" x2="-253.53" y2="162.12" gradientTransform="matrix(0, -6.93, -6.93, 0, 1171.43, -1695.95)" xlink:href="#linear-gradient-7"/><clipPath id="clip-path-9"><path class="cls-1" d="M51.84,61a1,1,0,0,1-.33,1.36,7.34,7.34,0,0,1-6.44.9,3.83,3.83,0,0,1-.28-.29H43.15a10.08,10.08,0,0,1-1.9-.23,2.14,2.14,0,0,0,.39.87c3,3.06,9,2.56,11.27-1a2.44,2.44,0,0,0-.33-2.8A4.47,4.47,0,0,1,51.84,61"/></clipPath><linearGradient id="linear-gradient-9" x1="-254.53" y1="162.14" x2="-253.53" y2="162.14" gradientTransform="matrix(0, -11.57, -11.57, 0, 1923.21, -2873.54)" xlink:href="#linear-gradient-7"/><clipPath id="clip-path-10"><path class="cls-1" d="M52.64,56.56a3.14,3.14,0,0,1,.24.86,5.56,5.56,0,0,1,1.29,1.73,6.64,6.64,0,0,1,.12,5.23C52.63,68,48.19,68.9,44.59,68c-3.89-.81-6.36-4-7.46-7.65-2.91-2.65-7.63-5.84-11.65-3.68-2.82,1.51-3.22,4.85-2,7.57,1.39,3.18,4.83,5.55,7.8,7.11a29.54,29.54,0,0,0,7,2.54c5.06,1.2,11.71,1.12,15.83-2.46,6-5.22,3-13.3-3.16-16.79a4.63,4.63,0,0,1,1.76,1.88"/></clipPath><linearGradient id="linear-gradient-10" x1="-254.53" y1="162.1" x2="-253.53" y2="162.1" gradientTransform="matrix(0, -33.44, -33.44, 0, 5462.35, -8425.04)" xlink:href="#linear-gradient-7"/></defs><title>sangria</title><g id="Layer_2" data-name="Layer 2"><g id="Layer_1-2" data-name="Layer 1"><g class="cls-2"><rect class="cls-3" x="40.46" y="37.63" width="6.52" height="5.1" transform="translate(-13.94 26) rotate(-28.77)"/></g><g class="cls-4"><rect class="cls-5" x="35.46" y="34.95" width="16.42" height="13.64" transform="translate(-14.71 26.17) rotate(-28.77)"/></g><g class="cls-6"><rect class="cls-7" x="29.45" y="28.91" width="27.32" height="24.27" transform="translate(-14.43 25.82) rotate(-28.77)"/></g><g class="cls-8"><rect class="cls-9" x="18.77" y="40.93" width="49.45" height="42.96" transform="translate(-24.66 28.63) rotate(-28.77)"/></g><g class="cls-10"><rect class="cls-11" x="12.18" y="11.23" width="63.85" height="66.99" transform="translate(-16.08 26.75) rotate(-28.77)"/></g><g class="cls-12"><rect class="cls-13" x="19.57" y="14.93" width="48.29" height="37.9" transform="translate(-5.47 8.58) rotate(-10.56)"/></g><g class="cls-14"><rect class="cls-15" x="40.16" y="54.15" width="11.77" height="18.01" transform="translate(-17.84 108.19) rotate(-89.09)"/></g><g class="cls-16"><rect class="cls-17" x="46.91" y="58.75" width="3.02" height="7.31" transform="translate(-14.75 109.83) rotate(-89.09)"/></g><g class="cls-18"><rect class="cls-19" x="43.8" y="57.04" width="7.08" height="12.3" transform="translate(-16.59 109.52) rotate(-89.09)"/></g><g class="cls-20"><rect class="cls-21" x="30.57" y="45.79" width="21.18" height="38.1" transform="translate(-24.34 104.96) rotate(-89.09)"/></g></g></g></svg>